<svg
  xmlns="http://www.w3.org/2000/svg"
  width="64"
  height="64"
  viewBox="0 0 64 64"
  fill="none"
>
  <rect width="64" height="64" rx="10" fill="#f9f9f9"/>
  <path
    d="M22 58c-3.313 0-6-2.687-6-6s2.687-6 6-6 6 2.687 6 6-2.687 6-6 6z"
    fill="#4caf50"
  />
  <path
    d="M50 58c-3.313 0-6-2.687-6-6s2.687-6 6-6 6 2.687 6 6-2.687 6-6 6z"
    fill="#4caf50"
  />
  <path
    d="M18 44c1.104 0 2-.896 2-2V22c0-1.104-.896-2-2-2H10.333l-.667-3H6c-1.104 0-2 .896-2 2s.896 2 2 2h2.507l1.5 6h4.672L16 22h2c1.104 0 2 .896 2 2v20c0 1.104-.896 2-2 2h-2z"
    fill="#388e3c"
  />
  <path
    d="M58.833 12H18.244l-1.764-4H2c-1.104 0-2 .896-2 2s.896 2 2 2h12.56l4.893 12h38.381c1.104 0 2-.896 2-2s-.896-2-2-2z"
    fill="#388e3c"
  />
  
  <!-- Adding items to the cart -->
  <rect x="40" y="20" width="8" height="8" rx="1" fill="#ffeb3b" />
  <rect x="50" y="15" width="6" height="6" rx="1" fill="#ffeb3b" />
  <rect x="40" y="30" width="7" height="7" rx="1" fill="#ffeb3b" />
</svg>
